# xmcd
#
# Track frame offsets:
#	150
#	9991
#	27124
#	39057
#	102744
#	119469
#	155776
#	164772
#	218765
#	243410
#	269728
#
# Disc length: 4078 seconds
#
# Revision: 0
# Processed by: cddbd v1.5.2PL0 Copyright (c) Steve Scherf et al.
# Submitted via: EasyCDDAExtractor 9.0.0.1
#
DISCID=970fec0b
DTITLE=Frank Zappa - Hemmerleinhalle Neunkirchen 25-02-78 Disc 1
DYEAR=1978
DGENRE=Progressive Rock
TTITLE0=The Purple Lagoon
TTITLE1=Dancin' Fool
TTITLE2=Peaches En Regalia
TTITLE3=The Torture Never Stops
TTITLE4=Tryin' To Grow A Chin
TTITLE5=City Of Tiny Lights
TTITLE6=Baby Snakes
TTITLE7=Pound For A Brown
TTITLE8=Is That Guy Kidding Or What
TTITLE9=I Have Been In You
TTITLE10=Flakes
EXTD=
EXTT0=
EXTT1=
EXTT2=
EXTT3=
EXTT4=
EXTT5=
EXTT6=
EXTT7=
EXTT8=
EXTT9=
EXTT10=
PLAYORDER=
